<svg xmlns="http://www.w3.org/2000/svg" xmlns:xlink="http://www.w3.org/1999/xlink" width="20" height="12" viewBox="0 0 5.292 3.175"><defs><clipPath id="c" clipPathUnits="userSpaceOnUse"><path d="m31.78 44.096-.637 18.603L46.106 73.77l-17.89 5.142-5.906 17.652L11.89 81.14l-18.614-.163L4.728 66.302-.869 48.55l17.495 6.356Z" style="fill:none;fill-rule:evenodd;stroke:none;stroke-width:.0661458;stroke-linecap:square;paint-order:markers stroke fill" transform="matrix(-.0157 -.09149 .08707 -.01667 57.008 142.162)"/></clipPath><clipPath id="d" clipPathUnits="userSpaceOnUse"><path d="m31.78 44.096-.637 18.603L46.106 73.77l-17.89 5.142-5.906 17.652L11.89 81.14l-18.614-.163L4.728 66.302-.869 48.55l17.495 6.356Z" style="fill:none;fill-rule:evenodd;stroke:#000;stroke-width:.0325931;stroke-linecap:square;stroke-dasharray:none;paint-order:markers stroke fill" transform="matrix(-.0157 -.09149 .08707 -.01667 62.685 142.733)"/></clipPath><radialGradient xlink:href="#a" id="b" cx="19.641" cy="69.806" r="26.414" fx="19.641" fy="69.806" gradientTransform="matrix(.91632 .17946 -.1662 .92574 13.311 1.55)" gradientUnits="userSpaceOnUse"/><linearGradient id="a"><stop offset="0" style="stop-color:#f0456c;stop-opacity:1"/><stop offset=".16" style="stop-color:#ff702a;stop-opacity:1"/><stop offset=".32" style="stop-color:#fec901;stop-opacity:1"/><stop offset=".48" style="stop-color:#00b274;stop-opacity:1"/><stop offset=".64" style="stop-color:#6fe1e1;stop-opacity:1"/><stop offset=".81" style="stop-color:#5295fe;stop-opacity:1"/><stop offset="1" style="stop-color:#d66fe5;stop-opacity:1"/></linearGradient></defs><path d="m31.78 44.096-.637 18.603L46.106 73.77l-17.89 5.142-5.906 17.652L11.89 81.14l-18.614-.163L4.728 66.302-.869 48.55l17.495 6.356Z" style="fill:#00b274;fill-rule:evenodd;stroke:none;stroke-width:.0661458;stroke-linecap:square;paint-order:markers stroke fill" transform="matrix(-.01406 -.08188 .07792 -.01491 -40.967 -4.163)"/><path d="m31.78 44.096-.637 18.603L46.106 73.77l-17.89 5.142-5.906 17.652L11.89 81.14l-18.614-.163L4.728 66.302-.869 48.55l17.495 6.356Z" style="fill:#5295fe;fill-rule:evenodd;stroke:none;stroke-width:.0661458;stroke-linecap:square;paint-order:markers stroke fill" transform="matrix(-.01406 -.08188 .07792 -.01491 -33.047 -4.296)"/><path d="m31.78 44.096-.637 18.603L46.106 73.77l-17.89 5.142-5.906 17.652L11.89 81.14l-18.614-.163L4.728 66.302-.869 48.55l17.495 6.356Z" style="fill:#6fe1e1;fill-rule:evenodd;stroke:none;stroke-width:.0661458;stroke-linecap:square;paint-order:markers stroke fill" transform="matrix(-.01406 -.08188 .07792 -.01491 -26.258 -4.03)"/><path d="m31.78 44.096-.637 18.603L46.106 73.77l-17.89 5.142-5.906 17.652L11.89 81.14l-18.614-.163L4.728 66.302-.869 48.55l17.495 6.356Z" style="fill:#d66fe5;fill-rule:evenodd;stroke:none;stroke-width:.0661458;stroke-linecap:square;paint-order:markers stroke fill" transform="matrix(-.01406 -.08188 .07792 -.01491 -19.227 -3.935)"/><path d="m31.78 44.096-.637 18.603L46.106 73.77l-17.89 5.142-5.906 17.652L11.89 81.14l-18.614-.163L4.728 66.302-.869 48.55l17.495 6.356Z" style="fill:#f0456c;fill-rule:evenodd;stroke:none;stroke-width:.0661458;stroke-linecap:square;paint-order:markers stroke fill" transform="matrix(-.01406 -.08188 .07792 -.01491 -12.122 -3.642)"/><path d="m31.78 44.096-.637 18.603L46.106 73.77l-17.89 5.142-5.906 17.652L11.89 81.14l-18.614-.163L4.728 66.302-.869 48.55l17.495 6.356Z" style="fill:#fec901;fill-rule:evenodd;stroke:none;stroke-width:.0661458;stroke-linecap:square;paint-order:markers stroke fill" transform="matrix(-.01406 -.08188 .07792 -.01491 -4.281 -3.877)"/><path d="m31.78 44.096-.637 18.603L46.106 73.77l-17.89 5.142-5.906 17.652L11.89 81.14l-18.614-.163L4.728 66.302-.869 48.55l17.495 6.356Z" style="fill:#ff702a;fill-rule:evenodd;stroke:none;stroke-width:.0661458;stroke-linecap:square;paint-order:markers stroke fill" transform="matrix(-.01406 -.08188 .07792 -.01491 3.092 -4.213)"/><path d="m31.78 44.096-.637 18.603L46.106 73.77l-17.89 5.142-5.906 17.652L11.89 81.14l-18.614-.163L4.728 66.302-.869 48.55l17.495 6.356Z" style="fill:url(#b);fill-rule:evenodd;stroke:none;stroke-width:.0661458;stroke-linecap:square;paint-order:markers stroke fill" transform="matrix(-.01406 -.08188 .07792 -.01491 -33.173 -9.687)"/><g clip-path="url(#c)" transform="matrix(.89493 0 0 .89493 -32.622 -131.29)"><circle cx="62.716" cy="139.283" r="2.646" style="fill:#f0456c;fill-rule:evenodd;stroke-width:.68434"/><circle cx="62.716" cy="139.283" r="2.315" style="fill:#ff702a;fill-rule:evenodd;stroke-width:.598797"/><circle cx="62.716" cy="139.283" r="1.984" style="fill:#fec901;fill-rule:evenodd;stroke-width:.513255"/><circle cx="62.716" cy="139.283" r="1.654" style="fill:#00b274;fill-rule:evenodd;stroke-width:.427712"/><circle cx="62.716" cy="139.283" r="1.323" style="fill:#6fe1e1;fill-rule:evenodd;stroke-width:.34217"/><circle cx="62.716" cy="139.283" r=".992" style="fill:#5295fe;fill-rule:evenodd;stroke-width:.256627"/><circle cx="62.716" cy="139.283" r=".661" style="fill:#d66fe5;fill-rule:evenodd;stroke-width:.171085"/></g><g clip-path="url(#d)" transform="matrix(.89493 0 0 .89493 -44.579 -132.088)"><g transform="matrix(1.52827 0 0 1.52827 -27.348 -72.826)"><circle cx="62.646" cy="139.213" r="1.735" style="fill:#f0456c;fill-rule:evenodd;stroke:#000;stroke-width:.00193452;stroke-dasharray:none"/><circle cx="62.646" cy="139.213" r="1.468" style="fill:#ff702a;fill-rule:evenodd;stroke:#000;stroke-width:.00193452;stroke-dasharray:none"/><circle cx="62.646" cy="139.213" r="1.201" style="fill:#fec901;fill-rule:evenodd;stroke:#000;stroke-width:.00193452;stroke-dasharray:none"/><circle cx="62.646" cy="139.213" r=".934" style="fill:#00b274;fill-rule:evenodd;stroke:#000;stroke-width:.00193452;stroke-dasharray:none"/><circle cx="62.646" cy="139.213" r=".667" style="fill:#6fe1e1;fill-rule:evenodd;stroke:#000;stroke-width:.00193452;stroke-dasharray:none"/><circle cx="62.646" cy="139.213" r=".4" style="fill:#5295fe;fill-rule:evenodd;stroke:#000;stroke-width:.00193452;stroke-dasharray:none"/><circle cx="62.646" cy="139.213" r=".133" style="fill:#d66fe5;fill-rule:evenodd;stroke:#000;stroke-width:.00096726;stroke-dasharray:none"/></g></g><path d="M63.5 126.339h5.292v.397H63.5z" style="fill:#ff5baa;fill-opacity:1;fill-rule:evenodd;stroke-width:.0849182" transform="translate(-50.27 -126.299)"/><path d="M63.5 126.735h5.292v.397H63.5z" style="fill:#f0456c;fill-opacity:1;fill-rule:evenodd;stroke-width:.0849182" transform="translate(-50.27 -126.299)"/><path d="M63.5 127.132h5.292v.397H63.5z" style="fill:#ff702a;fill-opacity:1;fill-rule:evenodd;stroke-width:.0849182" transform="translate(-50.27 -126.299)"/><path d="M63.5 127.529h5.292v.397H63.5z" style="fill:#fec901;fill-opacity:1;fill-rule:evenodd;stroke-width:.0849182" transform="translate(-50.27 -126.299)"/><path d="M63.5 127.926h5.292v.397H63.5z" style="fill:#00b274;fill-opacity:1;fill-rule:evenodd;stroke-width:.0849182" transform="translate(-50.27 -126.299)"/><path d="M63.5 128.323h5.292v.397H63.5z" style="fill:#6fe1e1;fill-opacity:1;fill-rule:evenodd;stroke-width:.0849182" transform="translate(-50.27 -126.299)"/><path d="M63.5 128.72h5.292v.397H63.5z" style="fill:#5295fe;fill-opacity:1;fill-rule:evenodd;stroke-width:.0849182" transform="translate(-50.27 -126.299)"/><path d="M63.5 129.117h5.292v.397H63.5z" style="fill:#d66fe5;fill-opacity:1;fill-rule:evenodd;stroke-width:.0849182" transform="translate(-50.27 -126.299)"/><path d="M56.439 126.471h5.292V127h-5.292z" style="fill:#f0456c;fill-opacity:1;fill-rule:evenodd;stroke-width:.0980551" transform="translate(-50.27 -126.365)"/><path d="M56.439 127h5.292v.529h-5.292z" style="fill:#ff702a;fill-opacity:1;fill-rule:evenodd;stroke-width:.0980551" transform="translate(-50.27 -126.365)"/><path d="M56.439 127.529h5.292v.529h-5.292z" style="fill:#fec901;fill-opacity:1;fill-rule:evenodd;stroke-width:.0980551" transform="translate(-50.27 -126.365)"/><path d="M56.439 128.058h5.292v.529h-5.292z" style="fill:#00b274;fill-opacity:1;fill-rule:evenodd;stroke-width:.0980551" transform="translate(-50.27 -126.365)"/><path d="M56.439 128.587h5.292v.529h-5.292z" style="fill:#5295fe;fill-opacity:1;fill-rule:evenodd;stroke-width:.0980551" transform="translate(-50.27 -126.365)"/><path d="M56.439 129.117h5.292v.529h-5.292z" style="fill:#d66fe5;fill-opacity:1;fill-rule:evenodd;stroke-width:.0980551" transform="translate(-50.27 -126.365)"/><path d="M56.439 129.117h5.292v.529h-5.292z" style="fill:#d66fe5;fill-opacity:1;fill-rule:evenodd;stroke-width:.0980551" transform="translate(-50.27 -126.365)"/><path d="M50.271 128.905h5.292v.635h-5.292z" style="fill:#90d7ff;fill-opacity:1;fill-rule:evenodd;stroke-width:.107414" transform="translate(-50.27 -126.365)"/><path d="M50.271 128.27h5.292v.635h-5.292zM50.271 127h5.292v.635h-5.292z" style="fill:#ff9bcd;fill-opacity:1;fill-rule:evenodd;stroke-width:.107414" transform="translate(-50.27 -126.365)"/><path d="M50.271 127.635h5.292v.635h-5.292z" style="fill:#fff;fill-opacity:1;fill-rule:evenodd;stroke-width:.107414" transform="translate(-50.27 -126.365)"/><path d="M50.271 126.365h5.292V127h-5.292z" style="fill:#90d7ff;fill-opacity:1;fill-rule:evenodd;stroke-width:.107414" transform="translate(-50.27 -126.365)"/><path d="M56.441 131.657h5.292v.794h-5.292z" style="fill:#ffeb75;fill-opacity:1;fill-rule:evenodd;stroke-width:.120093" transform="translate(-50.27 -126.365)"/><path d="M56.441 132.45h5.292v.794h-5.292z" style="fill:#fff;fill-opacity:1;fill-rule:evenodd;stroke-width:.120093" transform="translate(-50.27 -126.365)"/><path d="M56.441 133.244h5.292v.794h-5.292z" style="fill:#d66fe5;fill-opacity:1;fill-rule:evenodd;stroke-width:.120093" transform="translate(-50.27 -126.365)"/><path d="M56.441 134.038h5.292v.794h-5.292z" style="fill:#000;fill-opacity:1;fill-rule:evenodd;stroke-width:.120093" transform="translate(-50.27 -126.365)"/></svg>