<?xml version="1.0" encoding="UTF-8" standalone="no"?>
<!-- Created with Inkscape (http://www.inkscape.org/) -->

<svg
   width="15.903107"
   height="7.9378662"
   viewBox="0 0 4.2076968 2.1002271"
   version="1.1"
   id="svg1"
   xmlns="http://www.w3.org/2000/svg"
   xmlns:svg="http://www.w3.org/2000/svg">
  <defs
     id="defs1" />
  <g
     id="layer3"
     transform="translate(-123.87446,-149.00169)">
    <path
       style="display:inline;fill:#d66fe5;fill-rule:evenodd;stroke:none;stroke-width:0.0105593;stroke-dasharray:none"
       id="path1"
       d="m -124.20166,-150.82817 a 2.1038537,2.0985041 0 0 1 -2.09994,2.0985 2.1038537,2.0985041 0 0 1 -2.10775,-2.09071"
       transform="matrix(-0.99999767,-0.00215644,0.00216745,-0.99999765,0,0)" />
    <path
       style="display:inline;fill:#5295fe;fill-rule:evenodd;stroke:none;stroke-width:0.0105593;stroke-dasharray:none"
       id="path2"
       d="m -124.4663,-150.82817 a 1.839214,1.8345375 0 0 1 -1.83522,1.83453 1.839214,1.8345375 0 0 1 -1.84319,-1.82657"
       transform="matrix(-0.99999767,-0.00215644,0.00216745,-0.99999765,0,0)" />
    <path
       style="display:inline;fill:#6fe1e1;fill-rule:evenodd;stroke:none;stroke-width:0.0105593;stroke-dasharray:none"
       id="path3"
       d="m -124.72415,-150.82817 a 1.5813658,1.5773449 0 0 1 -1.57794,1.57734 1.5813658,1.5773449 0 0 1 -1.58477,-1.57052"
       transform="matrix(-0.99999767,-0.00215644,0.00216745,-0.99999765,0,0)" />
    <path
       style="display:inline;fill:#00b274;fill-rule:evenodd;stroke:none;stroke-width:0.0105593;stroke-dasharray:none"
       id="path4"
       d="m -124.98832,-150.82817 a 1.3171892,1.3138402 0 0 1 -1.31533,1.31384 1.3171892,1.3138402 0 0 1 -1.31905,-1.31014"
       transform="matrix(-0.99999767,-0.00215644,0.00216745,-0.99999765,0,0)" />
    <path
       style="display:inline;fill:#fec901;fill-rule:evenodd;stroke:none;stroke-width:0.0105593;stroke-dasharray:none"
       id="path5"
       d="m -125.25246,-150.82817 a 1.0530478,1.0503702 0 0 1 -1.05278,1.05037 1.0530478,1.0503702 0 0 1 -1.05332,-1.04983"
       transform="matrix(-0.99999767,-0.00215644,0.00216745,-0.99999765,0,0)" />
    <path
       style="display:inline;fill:#ff702a;fill-rule:evenodd;stroke:none;stroke-width:0.0105593;stroke-dasharray:none"
       id="path6"
       d="m -125.51573,-150.82817 a 0.78978586,0.78777772 0 0 1 -0.39489,0.68223 0.78978586,0.78777772 0 0 1 -0.78978,0 0.78978586,0.78777772 0 0 1 -0.3949,-0.68223"
       transform="matrix(-0.99999767,-0.00215644,0.00216745,-0.99999765,0,0)" />
    <path
       style="display:inline;fill:#f0456c;fill-rule:evenodd;stroke:none;stroke-width:0.0105593;stroke-dasharray:none"
       id="path7"
       d="m -125.78039,-150.82769 a 0.52512217,0.52378696 0 0 1 -0.52489,0.52331 0.52512217,0.52378696 0 0 1 -0.52535,-0.52285"
       transform="matrix(-0.99999767,-0.00215644,0.00216745,-0.99999765,0,0)" />
  </g>
</svg>
