<?xml version="1.0" encoding="UTF-8" standalone="no"?>
<!-- Created with Inkscape (http://www.inkscape.org/) -->

<svg
   width="15.943084"
   height="7.9578242"
   viewBox="0 0 4.2182741 2.1055076"
   version="1.1"
   id="svg1"
   xmlns="http://www.w3.org/2000/svg"
   xmlns:svg="http://www.w3.org/2000/svg">
  <defs
     id="defs1" />
  <g
     id="layer3"
     transform="translate(-112.56804,-159.3407)">
    <g
       id="g14"
       transform="matrix(0.10397108,0,0,0.10370672,99.558981,146.84008)">
      <path
         style="display:inline;fill:#d66fe5;fill-rule:evenodd;stroke:#000000;stroke-width:0.0264583;stroke-dasharray:none"
         id="path8"
         d="m 173.23481,138.35306 a 5.2649035,5.2649031 0 0 1 -5.25512,5.26489 5.2649035,5.2649031 0 0 1 -5.27465,-5.24534"
         transform="matrix(-3.8433641,-0.00830914,0.00830914,-3.8433641,789.82755,673.96085)" />
      <path
         style="display:inline;fill:#5295fe;fill-rule:evenodd;stroke:#000000;stroke-width:0.0264583;stroke-dasharray:none"
         id="path9"
         d="m 172.57255,138.35306 a 4.6026416,4.6026416 0 0 1 -4.59265,4.60263 4.6026416,4.6026416 0 0 1 -4.61259,-4.58265"
         transform="matrix(-3.8433641,-0.00830914,0.00830914,-3.8433641,789.82755,673.96085)" />
      <path
         style="display:inline;fill:#6fe1e1;fill-rule:evenodd;stroke:#000000;stroke-width:0.0264583;stroke-dasharray:none"
         id="path10"
         d="m 171.92728,138.35306 a 3.9573753,3.9573753 0 0 1 -3.94881,3.95736 3.9573753,3.9573753 0 0 1 -3.9659,-3.94025"
         transform="matrix(-3.8433641,-0.00830914,0.00830914,-3.8433641,789.82755,673.96085)" />
      <path
         style="display:inline;fill:#00b274;fill-rule:evenodd;stroke:#000000;stroke-width:0.0264583;stroke-dasharray:none"
         id="path11"
         d="m 171.26618,138.35306 a 3.2962723,3.2962723 0 0 1 -3.29162,3.29627 3.2962723,3.2962723 0 0 1 -3.30091,-3.28698"
         transform="matrix(-3.8433641,-0.00830914,0.00830914,-3.8433641,789.82755,673.96085)" />
      <path
         style="display:inline;fill:#fec901;fill-rule:evenodd;stroke:#000000;stroke-width:0.0264583;stroke-dasharray:none"
         id="path12"
         d="m 170.60517,138.35306 a 2.635257,2.635257 0 0 1 -2.63459,2.63525 2.635257,2.635257 0 0 1 -2.63593,-2.6339"
         transform="matrix(-3.8433641,-0.00830914,0.00830914,-3.8433641,789.82755,673.96085)" />
      <path
         style="display:inline;fill:#ff702a;fill-rule:evenodd;stroke:#000000;stroke-width:0.0264583;stroke-dasharray:none"
         id="path13"
         d="m 169.94635,138.35306 a 1.9764428,1.9764428 0 0 1 -0.98822,1.71165 1.9764428,1.9764428 0 0 1 -1.97644,0 1.9764428,1.9764428 0 0 1 -0.98822,-1.71165"
         transform="matrix(-3.8433641,-0.00830914,0.00830914,-3.8433641,789.82755,673.96085)" />
      <path
         style="display:inline;fill:#f0456c;fill-rule:evenodd;stroke:#000000;stroke-width:0.0264583;stroke-dasharray:none"
         id="path14"
         d="m 169.28403,138.35427 a 1.3141207,1.3141207 0 0 1 -1.31355,1.31291 1.3141207,1.3141207 0 0 1 -1.31469,-1.31176"
         transform="matrix(-3.8433641,-0.00830914,0.00830914,-3.8433641,789.82755,673.96085)" />
    </g>
  </g>
</svg>
